<mxfile host="app.diagrams.net" modified="2024-04-22T14:26:15.277Z" agent="Mozilla/5.0 (Windows NT 10.0; Win64; x64) AppleWebKit/537.36 (KHTML, like Gecko) Chrome/123.0.0.0 Safari/537.36" etag="LBwYOcZV3BkYib64sNHc" version="24.2.5" type="device">
  <diagram id="R2lEEEUBdFMjLlhIrx00" name="Page-1">
    <mxGraphModel dx="1434" dy="780" grid="1" gridSize="10" guides="1" tooltips="1" connect="1" arrows="1" fold="1" page="1" pageScale="1" pageWidth="850" pageHeight="1100" math="0" shadow="0" extFonts="Permanent Marker^https://fonts.googleapis.com/css?family=Permanent+Marker">
      <root>
        <mxCell id="0" />
        <mxCell id="1" parent="0" />
        <mxCell id="vFjOnIhHw2QcStodndVT-19" value="1" style="edgeStyle=orthogonalEdgeStyle;rounded=0;orthogonalLoop=1;jettySize=auto;html=1;exitX=1;exitY=0.5;exitDx=0;exitDy=0;" edge="1" parent="1" source="vFjOnIhHw2QcStodndVT-1" target="vFjOnIhHw2QcStodndVT-9">
          <mxGeometry relative="1" as="geometry">
            <Array as="points">
              <mxPoint x="270" y="310" />
              <mxPoint x="270" y="310" />
            </Array>
          </mxGeometry>
        </mxCell>
        <mxCell id="vFjOnIhHw2QcStodndVT-21" value="1" style="edgeStyle=orthogonalEdgeStyle;rounded=0;orthogonalLoop=1;jettySize=auto;html=1;exitX=0.5;exitY=1;exitDx=0;exitDy=0;entryX=0.5;entryY=0;entryDx=0;entryDy=0;" edge="1" parent="1" source="vFjOnIhHw2QcStodndVT-1" target="vFjOnIhHw2QcStodndVT-8">
          <mxGeometry relative="1" as="geometry" />
        </mxCell>
        <mxCell id="vFjOnIhHw2QcStodndVT-1" value="&lt;font style=&quot;font-size: 20px;&quot;&gt;用户&lt;/font&gt;" style="rounded=0;whiteSpace=wrap;html=1;" vertex="1" parent="1">
          <mxGeometry x="130" y="280" width="120" height="60" as="geometry" />
        </mxCell>
        <mxCell id="vFjOnIhHw2QcStodndVT-23" value="1" style="edgeStyle=orthogonalEdgeStyle;rounded=0;orthogonalLoop=1;jettySize=auto;html=1;exitX=0;exitY=0.5;exitDx=0;exitDy=0;" edge="1" parent="1" source="vFjOnIhHw2QcStodndVT-2" target="vFjOnIhHw2QcStodndVT-10">
          <mxGeometry relative="1" as="geometry">
            <Array as="points">
              <mxPoint x="450" y="560" />
              <mxPoint x="450" y="560" />
            </Array>
          </mxGeometry>
        </mxCell>
        <mxCell id="vFjOnIhHw2QcStodndVT-25" value="1" style="edgeStyle=orthogonalEdgeStyle;rounded=0;orthogonalLoop=1;jettySize=auto;html=1;exitX=0.5;exitY=0;exitDx=0;exitDy=0;entryX=0.5;entryY=1;entryDx=0;entryDy=0;" edge="1" parent="1" source="vFjOnIhHw2QcStodndVT-2" target="vFjOnIhHw2QcStodndVT-11">
          <mxGeometry relative="1" as="geometry">
            <Array as="points">
              <mxPoint x="540" y="490" />
              <mxPoint x="540" y="490" />
            </Array>
          </mxGeometry>
        </mxCell>
        <mxCell id="vFjOnIhHw2QcStodndVT-27" value="1" style="edgeStyle=orthogonalEdgeStyle;rounded=0;orthogonalLoop=1;jettySize=auto;html=1;exitX=1;exitY=0.5;exitDx=0;exitDy=0;entryX=0;entryY=0.5;entryDx=0;entryDy=0;" edge="1" parent="1" source="vFjOnIhHw2QcStodndVT-2" target="vFjOnIhHw2QcStodndVT-12">
          <mxGeometry relative="1" as="geometry">
            <Array as="points">
              <mxPoint x="640" y="560" />
              <mxPoint x="640" y="560" />
            </Array>
          </mxGeometry>
        </mxCell>
        <mxCell id="vFjOnIhHw2QcStodndVT-31" value="1" style="edgeStyle=orthogonalEdgeStyle;rounded=0;orthogonalLoop=1;jettySize=auto;html=1;exitX=1;exitY=0;exitDx=0;exitDy=0;" edge="1" parent="1" source="vFjOnIhHw2QcStodndVT-2" target="vFjOnIhHw2QcStodndVT-15">
          <mxGeometry relative="1" as="geometry" />
        </mxCell>
        <mxCell id="vFjOnIhHw2QcStodndVT-2" value="&lt;font style=&quot;font-size: 20px;&quot;&gt;景点&lt;/font&gt;" style="rounded=0;whiteSpace=wrap;html=1;" vertex="1" parent="1">
          <mxGeometry x="480" y="530" width="120" height="60" as="geometry" />
        </mxCell>
        <mxCell id="vFjOnIhHw2QcStodndVT-29" value="n" style="edgeStyle=orthogonalEdgeStyle;rounded=0;orthogonalLoop=1;jettySize=auto;html=1;exitX=1;exitY=0.5;exitDx=0;exitDy=0;entryX=0;entryY=0.5;entryDx=0;entryDy=0;" edge="1" parent="1" source="vFjOnIhHw2QcStodndVT-3" target="vFjOnIhHw2QcStodndVT-16">
          <mxGeometry relative="1" as="geometry">
            <Array as="points">
              <mxPoint x="850" y="310" />
              <mxPoint x="850" y="310" />
            </Array>
          </mxGeometry>
        </mxCell>
        <mxCell id="vFjOnIhHw2QcStodndVT-3" value="&lt;font style=&quot;font-size: 20px;&quot;&gt;标签&lt;/font&gt;" style="rounded=0;whiteSpace=wrap;html=1;" vertex="1" parent="1">
          <mxGeometry x="690" y="280" width="120" height="60" as="geometry" />
        </mxCell>
        <mxCell id="vFjOnIhHw2QcStodndVT-4" value="&lt;font style=&quot;font-size: 20px;&quot;&gt;评论&lt;/font&gt;" style="rounded=0;whiteSpace=wrap;html=1;" vertex="1" parent="1">
          <mxGeometry x="130" y="530" width="120" height="60" as="geometry" />
        </mxCell>
        <mxCell id="vFjOnIhHw2QcStodndVT-5" value="&lt;font style=&quot;font-size: 20px;&quot;&gt;评分&lt;/font&gt;" style="rounded=0;whiteSpace=wrap;html=1;" vertex="1" parent="1">
          <mxGeometry x="480" y="280" width="120" height="60" as="geometry" />
        </mxCell>
        <mxCell id="vFjOnIhHw2QcStodndVT-6" value="&lt;font style=&quot;font-size: 20px;&quot;&gt;价格&lt;/font&gt;" style="rounded=0;whiteSpace=wrap;html=1;" vertex="1" parent="1">
          <mxGeometry x="880" y="530" width="120" height="60" as="geometry" />
        </mxCell>
        <mxCell id="vFjOnIhHw2QcStodndVT-7" value="&lt;font style=&quot;font-size: 20px;&quot;&gt;景点标签&lt;/font&gt;" style="rounded=0;whiteSpace=wrap;html=1;" vertex="1" parent="1">
          <mxGeometry x="880" y="410" width="120" height="60" as="geometry" />
        </mxCell>
        <mxCell id="vFjOnIhHw2QcStodndVT-22" value="n" style="edgeStyle=orthogonalEdgeStyle;rounded=0;orthogonalLoop=1;jettySize=auto;html=1;exitX=0.5;exitY=1;exitDx=0;exitDy=0;" edge="1" parent="1" source="vFjOnIhHw2QcStodndVT-8" target="vFjOnIhHw2QcStodndVT-4">
          <mxGeometry relative="1" as="geometry">
            <Array as="points">
              <mxPoint x="190" y="500" />
              <mxPoint x="190" y="500" />
            </Array>
          </mxGeometry>
        </mxCell>
        <mxCell id="vFjOnIhHw2QcStodndVT-8" value="&lt;font style=&quot;font-size: 17px;&quot;&gt;创建&lt;/font&gt;" style="rhombus;whiteSpace=wrap;html=1;" vertex="1" parent="1">
          <mxGeometry x="125" y="415" width="130" height="50" as="geometry" />
        </mxCell>
        <mxCell id="vFjOnIhHw2QcStodndVT-20" value="n" style="edgeStyle=orthogonalEdgeStyle;rounded=0;orthogonalLoop=1;jettySize=auto;html=1;exitX=1;exitY=0.5;exitDx=0;exitDy=0;" edge="1" parent="1" source="vFjOnIhHw2QcStodndVT-9" target="vFjOnIhHw2QcStodndVT-5">
          <mxGeometry relative="1" as="geometry">
            <Array as="points">
              <mxPoint x="450" y="310" />
              <mxPoint x="450" y="310" />
            </Array>
          </mxGeometry>
        </mxCell>
        <mxCell id="vFjOnIhHw2QcStodndVT-9" value="&lt;font style=&quot;font-size: 17px;&quot;&gt;给出&lt;/font&gt;" style="rhombus;whiteSpace=wrap;html=1;" vertex="1" parent="1">
          <mxGeometry x="305" y="285" width="120" height="50" as="geometry" />
        </mxCell>
        <mxCell id="vFjOnIhHw2QcStodndVT-24" value="n" style="edgeStyle=orthogonalEdgeStyle;rounded=0;orthogonalLoop=1;jettySize=auto;html=1;exitX=0;exitY=0.5;exitDx=0;exitDy=0;entryX=1;entryY=0.5;entryDx=0;entryDy=0;" edge="1" parent="1" source="vFjOnIhHw2QcStodndVT-10" target="vFjOnIhHw2QcStodndVT-4">
          <mxGeometry relative="1" as="geometry">
            <Array as="points">
              <mxPoint x="290" y="560" />
              <mxPoint x="290" y="560" />
            </Array>
          </mxGeometry>
        </mxCell>
        <mxCell id="vFjOnIhHw2QcStodndVT-10" value="&lt;font style=&quot;font-size: 17px;&quot;&gt;拥有&lt;/font&gt;" style="rhombus;whiteSpace=wrap;html=1;" vertex="1" parent="1">
          <mxGeometry x="305" y="535" width="120" height="50" as="geometry" />
        </mxCell>
        <mxCell id="vFjOnIhHw2QcStodndVT-26" value="n" style="edgeStyle=orthogonalEdgeStyle;rounded=0;orthogonalLoop=1;jettySize=auto;html=1;exitX=0.5;exitY=0;exitDx=0;exitDy=0;" edge="1" parent="1" source="vFjOnIhHw2QcStodndVT-11" target="vFjOnIhHw2QcStodndVT-5">
          <mxGeometry relative="1" as="geometry">
            <Array as="points">
              <mxPoint x="540" y="380" />
              <mxPoint x="540" y="380" />
            </Array>
          </mxGeometry>
        </mxCell>
        <mxCell id="vFjOnIhHw2QcStodndVT-11" value="&lt;font style=&quot;font-size: 17px;&quot;&gt;评分&lt;/font&gt;" style="rhombus;whiteSpace=wrap;html=1;" vertex="1" parent="1">
          <mxGeometry x="480" y="415" width="120" height="50" as="geometry" />
        </mxCell>
        <mxCell id="vFjOnIhHw2QcStodndVT-28" value="n" style="edgeStyle=orthogonalEdgeStyle;rounded=0;orthogonalLoop=1;jettySize=auto;html=1;exitX=1;exitY=0.5;exitDx=0;exitDy=0;entryX=0;entryY=0.5;entryDx=0;entryDy=0;" edge="1" parent="1" source="vFjOnIhHw2QcStodndVT-12" target="vFjOnIhHw2QcStodndVT-6">
          <mxGeometry relative="1" as="geometry">
            <Array as="points">
              <mxPoint x="840" y="560" />
              <mxPoint x="840" y="560" />
            </Array>
          </mxGeometry>
        </mxCell>
        <mxCell id="vFjOnIhHw2QcStodndVT-12" value="&lt;font style=&quot;font-size: 17px;&quot;&gt;包含&lt;/font&gt;" style="rhombus;whiteSpace=wrap;html=1;" vertex="1" parent="1">
          <mxGeometry x="690" y="535" width="120" height="50" as="geometry" />
        </mxCell>
        <mxCell id="vFjOnIhHw2QcStodndVT-33" value="n" style="edgeStyle=orthogonalEdgeStyle;rounded=0;orthogonalLoop=1;jettySize=auto;html=1;exitX=1;exitY=0.5;exitDx=0;exitDy=0;entryX=0;entryY=0.5;entryDx=0;entryDy=0;" edge="1" parent="1" source="vFjOnIhHw2QcStodndVT-15" target="vFjOnIhHw2QcStodndVT-7">
          <mxGeometry relative="1" as="geometry" />
        </mxCell>
        <mxCell id="vFjOnIhHw2QcStodndVT-15" value="&lt;font style=&quot;font-size: 17px;&quot;&gt;具有&lt;/font&gt;" style="rhombus;whiteSpace=wrap;html=1;" vertex="1" parent="1">
          <mxGeometry x="690" y="415" width="120" height="50" as="geometry" />
        </mxCell>
        <mxCell id="vFjOnIhHw2QcStodndVT-30" value="1" style="edgeStyle=orthogonalEdgeStyle;rounded=0;orthogonalLoop=1;jettySize=auto;html=1;exitX=0.5;exitY=1;exitDx=0;exitDy=0;entryX=0.5;entryY=0;entryDx=0;entryDy=0;" edge="1" parent="1" source="vFjOnIhHw2QcStodndVT-16" target="vFjOnIhHw2QcStodndVT-7">
          <mxGeometry relative="1" as="geometry" />
        </mxCell>
        <mxCell id="vFjOnIhHw2QcStodndVT-16" value="&lt;font style=&quot;font-size: 17px;&quot;&gt;标记&lt;/font&gt;" style="rhombus;whiteSpace=wrap;html=1;" vertex="1" parent="1">
          <mxGeometry x="880" y="285" width="120" height="50" as="geometry" />
        </mxCell>
      </root>
    </mxGraphModel>
  </diagram>
</mxfile>
